<mxfile host="app.diagrams.net" modified="2024-01-28T16:33:25.291Z" agent="Mozilla/5.0 (Windows NT 10.0; Win64; x64) AppleWebKit/537.36 (KHTML, like Gecko) Chrome/120.0.0.0 Safari/537.36" etag="YUmsiiobQsK8HWhrPpKL" version="23.0.2" type="github">
  <diagram name="第 1 页" id="l-pE-jZl2FhNRzLXK9Ny">
    <mxGraphModel dx="2092" dy="1450" grid="1" gridSize="10" guides="1" tooltips="1" connect="1" arrows="1" fold="1" page="0" pageScale="1" pageWidth="827" pageHeight="1169" math="0" shadow="0">
      <root>
        <mxCell id="0" />
        <mxCell id="1" parent="0" />
        <mxCell id="SOFfAEYoUV6gIpj9PbRY-2" value="" style="swimlane;startSize=0;" parent="1" vertex="1">
          <mxGeometry x="90" y="320" width="520" height="220" as="geometry" />
        </mxCell>
        <mxCell id="SOFfAEYoUV6gIpj9PbRY-1" value="Body&lt;br&gt;(Quats)" style="rounded=0;whiteSpace=wrap;html=1;" parent="SOFfAEYoUV6gIpj9PbRY-2" vertex="1">
          <mxGeometry x="40" y="100" width="80" height="50" as="geometry" />
        </mxCell>
        <mxCell id="SOFfAEYoUV6gIpj9PbRY-4" value="bvh" style="rounded=0;whiteSpace=wrap;html=1;" parent="SOFfAEYoUV6gIpj9PbRY-2" vertex="1">
          <mxGeometry x="290" y="40" width="80" height="50" as="geometry" />
        </mxCell>
        <mxCell id="SOFfAEYoUV6gIpj9PbRY-5" value="UE轴对齐" style="rounded=0;whiteSpace=wrap;html=1;" parent="SOFfAEYoUV6gIpj9PbRY-2" vertex="1">
          <mxGeometry x="170" y="40" width="80" height="50" as="geometry" />
        </mxCell>
        <mxCell id="SOFfAEYoUV6gIpj9PbRY-9" value="strip frame motion" style="rounded=0;whiteSpace=wrap;html=1;" parent="SOFfAEYoUV6gIpj9PbRY-2" vertex="1">
          <mxGeometry x="410" y="40" width="80" height="50" as="geometry" />
        </mxCell>
        <mxCell id="SOFfAEYoUV6gIpj9PbRY-10" value="bvh" style="rounded=0;whiteSpace=wrap;html=1;" parent="SOFfAEYoUV6gIpj9PbRY-2" vertex="1">
          <mxGeometry x="290" y="135" width="80" height="50" as="geometry" />
        </mxCell>
        <mxCell id="SOFfAEYoUV6gIpj9PbRY-11" value="strip frame motion" style="rounded=0;whiteSpace=wrap;html=1;" parent="SOFfAEYoUV6gIpj9PbRY-2" vertex="1">
          <mxGeometry x="410" y="135" width="80" height="50" as="geometry" />
        </mxCell>
        <mxCell id="SOFfAEYoUV6gIpj9PbRY-14" value="标准化bvh" style="rounded=0;whiteSpace=wrap;html=1;" parent="SOFfAEYoUV6gIpj9PbRY-2" vertex="1">
          <mxGeometry x="170" y="135" width="80" height="50" as="geometry" />
        </mxCell>
        <mxCell id="SOFfAEYoUV6gIpj9PbRY-15" value="&lt;b&gt;服务2：根据语音生成动作Audio2Face&amp;amp;Audio2Gesture&lt;/b&gt;" style="text;html=1;strokeColor=none;fillColor=none;align=center;verticalAlign=middle;whiteSpace=wrap;rounded=0;" parent="SOFfAEYoUV6gIpj9PbRY-2" vertex="1">
          <mxGeometry y="10" width="170" height="30" as="geometry" />
        </mxCell>
        <mxCell id="SOFfAEYoUV6gIpj9PbRY-25" value="" style="endArrow=classic;html=1;rounded=0;exitX=1;exitY=0.5;exitDx=0;exitDy=0;entryX=0;entryY=0.5;entryDx=0;entryDy=0;" parent="SOFfAEYoUV6gIpj9PbRY-2" source="SOFfAEYoUV6gIpj9PbRY-1" target="SOFfAEYoUV6gIpj9PbRY-5" edge="1">
          <mxGeometry width="50" height="50" relative="1" as="geometry">
            <mxPoint x="220" y="-40" as="sourcePoint" />
            <mxPoint x="270" y="-90" as="targetPoint" />
          </mxGeometry>
        </mxCell>
        <mxCell id="SOFfAEYoUV6gIpj9PbRY-26" value="" style="endArrow=classic;html=1;rounded=0;exitX=1;exitY=0.5;exitDx=0;exitDy=0;entryX=0;entryY=0.5;entryDx=0;entryDy=0;" parent="SOFfAEYoUV6gIpj9PbRY-2" source="SOFfAEYoUV6gIpj9PbRY-1" target="SOFfAEYoUV6gIpj9PbRY-14" edge="1">
          <mxGeometry width="50" height="50" relative="1" as="geometry">
            <mxPoint x="160" y="370" as="sourcePoint" />
            <mxPoint x="210" y="320" as="targetPoint" />
          </mxGeometry>
        </mxCell>
        <mxCell id="SOFfAEYoUV6gIpj9PbRY-27" value="" style="endArrow=classic;html=1;rounded=0;exitX=1;exitY=0.5;exitDx=0;exitDy=0;entryX=0;entryY=0.5;entryDx=0;entryDy=0;" parent="SOFfAEYoUV6gIpj9PbRY-2" source="SOFfAEYoUV6gIpj9PbRY-5" target="SOFfAEYoUV6gIpj9PbRY-4" edge="1">
          <mxGeometry width="50" height="50" relative="1" as="geometry">
            <mxPoint x="390" y="390" as="sourcePoint" />
            <mxPoint x="440" y="340" as="targetPoint" />
          </mxGeometry>
        </mxCell>
        <mxCell id="SOFfAEYoUV6gIpj9PbRY-28" value="" style="endArrow=classic;html=1;rounded=0;exitX=1;exitY=0.5;exitDx=0;exitDy=0;entryX=0;entryY=0.5;entryDx=0;entryDy=0;" parent="SOFfAEYoUV6gIpj9PbRY-2" source="SOFfAEYoUV6gIpj9PbRY-14" target="SOFfAEYoUV6gIpj9PbRY-10" edge="1">
          <mxGeometry width="50" height="50" relative="1" as="geometry">
            <mxPoint x="260" y="75" as="sourcePoint" />
            <mxPoint x="300" y="75" as="targetPoint" />
          </mxGeometry>
        </mxCell>
        <mxCell id="SOFfAEYoUV6gIpj9PbRY-29" value="" style="endArrow=classic;html=1;rounded=0;exitX=1;exitY=0.5;exitDx=0;exitDy=0;entryX=0;entryY=0.5;entryDx=0;entryDy=0;" parent="SOFfAEYoUV6gIpj9PbRY-2" source="SOFfAEYoUV6gIpj9PbRY-10" target="SOFfAEYoUV6gIpj9PbRY-11" edge="1">
          <mxGeometry width="50" height="50" relative="1" as="geometry">
            <mxPoint x="260" y="170" as="sourcePoint" />
            <mxPoint x="300" y="170" as="targetPoint" />
          </mxGeometry>
        </mxCell>
        <mxCell id="SOFfAEYoUV6gIpj9PbRY-30" value="" style="endArrow=classic;html=1;rounded=0;exitX=1;exitY=0.5;exitDx=0;exitDy=0;entryX=0;entryY=0.5;entryDx=0;entryDy=0;" parent="SOFfAEYoUV6gIpj9PbRY-2" source="SOFfAEYoUV6gIpj9PbRY-4" target="SOFfAEYoUV6gIpj9PbRY-9" edge="1">
          <mxGeometry width="50" height="50" relative="1" as="geometry">
            <mxPoint x="380" y="170" as="sourcePoint" />
            <mxPoint x="420" y="170" as="targetPoint" />
          </mxGeometry>
        </mxCell>
        <mxCell id="SOFfAEYoUV6gIpj9PbRY-31" value="" style="endArrow=classic;html=1;rounded=0;exitX=1;exitY=0.5;exitDx=0;exitDy=0;entryX=0;entryY=0.5;entryDx=0;entryDy=0;" parent="1" source="SOFfAEYoUV6gIpj9PbRY-9" target="SOFfAEYoUV6gIpj9PbRY-6" edge="1">
          <mxGeometry width="50" height="50" relative="1" as="geometry">
            <mxPoint x="470" y="395" as="sourcePoint" />
            <mxPoint x="510" y="395" as="targetPoint" />
          </mxGeometry>
        </mxCell>
        <mxCell id="SOFfAEYoUV6gIpj9PbRY-32" value="" style="endArrow=classic;html=1;rounded=0;exitX=1;exitY=0.5;exitDx=0;exitDy=0;entryX=0;entryY=0.5;entryDx=0;entryDy=0;" parent="1" source="SOFfAEYoUV6gIpj9PbRY-11" target="SOFfAEYoUV6gIpj9PbRY-7" edge="1">
          <mxGeometry width="50" height="50" relative="1" as="geometry">
            <mxPoint x="590" y="395" as="sourcePoint" />
            <mxPoint x="660" y="395" as="targetPoint" />
          </mxGeometry>
        </mxCell>
        <mxCell id="SOFfAEYoUV6gIpj9PbRY-33" value="" style="swimlane;startSize=0;" parent="1" vertex="1">
          <mxGeometry x="640" y="320" width="600" height="220" as="geometry" />
        </mxCell>
        <mxCell id="SOFfAEYoUV6gIpj9PbRY-6" value="UE" style="rounded=0;whiteSpace=wrap;html=1;" parent="SOFfAEYoUV6gIpj9PbRY-33" vertex="1">
          <mxGeometry x="43" y="35" width="120" height="60" as="geometry" />
        </mxCell>
        <mxCell id="SOFfAEYoUV6gIpj9PbRY-7" value="Unity&lt;br&gt;(Agent工程)" style="rounded=0;whiteSpace=wrap;html=1;" parent="SOFfAEYoUV6gIpj9PbRY-33" vertex="1">
          <mxGeometry x="43" y="130" width="120" height="60" as="geometry" />
        </mxCell>
        <mxCell id="SOFfAEYoUV6gIpj9PbRY-34" value="&lt;b&gt;客户端-驱动侧&lt;/b&gt;" style="text;html=1;strokeColor=none;fillColor=none;align=center;verticalAlign=middle;whiteSpace=wrap;rounded=0;" parent="SOFfAEYoUV6gIpj9PbRY-33" vertex="1">
          <mxGeometry x="10" width="90" height="30" as="geometry" />
        </mxCell>
        <mxCell id="SOFfAEYoUV6gIpj9PbRY-35" value="旋转数据已经预处理过&lt;br&gt;AnimBp bone rot&lt;br&gt;(Component Space)" style="rounded=0;whiteSpace=wrap;html=1;" parent="SOFfAEYoUV6gIpj9PbRY-33" vertex="1">
          <mxGeometry x="230" y="35" width="150" height="60" as="geometry" />
        </mxCell>
        <mxCell id="SOFfAEYoUV6gIpj9PbRY-36" value="标准解析bvh流程&lt;br&gt;bvh关节的欧拉角&lt;br&gt;转为四元数即为&lt;br&gt;可用的localrotation" style="rounded=0;whiteSpace=wrap;html=1;" parent="SOFfAEYoUV6gIpj9PbRY-33" vertex="1">
          <mxGeometry x="230" y="130" width="150" height="60" as="geometry" />
        </mxCell>
        <mxCell id="SOFfAEYoUV6gIpj9PbRY-37" value="" style="endArrow=classic;html=1;rounded=0;entryX=0;entryY=0.5;entryDx=0;entryDy=0;exitX=1;exitY=0.5;exitDx=0;exitDy=0;" parent="SOFfAEYoUV6gIpj9PbRY-33" source="SOFfAEYoUV6gIpj9PbRY-6" target="SOFfAEYoUV6gIpj9PbRY-35" edge="1">
          <mxGeometry width="50" height="50" relative="1" as="geometry">
            <mxPoint x="160" y="65" as="sourcePoint" />
            <mxPoint x="-130" y="75" as="targetPoint" />
          </mxGeometry>
        </mxCell>
        <mxCell id="SOFfAEYoUV6gIpj9PbRY-38" value="" style="endArrow=classic;html=1;rounded=0;entryX=0;entryY=0.5;entryDx=0;entryDy=0;exitX=1;exitY=0.5;exitDx=0;exitDy=0;" parent="SOFfAEYoUV6gIpj9PbRY-33" source="SOFfAEYoUV6gIpj9PbRY-7" target="SOFfAEYoUV6gIpj9PbRY-36" edge="1">
          <mxGeometry width="50" height="50" relative="1" as="geometry">
            <mxPoint x="173" y="75" as="sourcePoint" />
            <mxPoint x="240" y="75" as="targetPoint" />
          </mxGeometry>
        </mxCell>
        <mxCell id="SOFfAEYoUV6gIpj9PbRY-39" value="UE/Unity...&lt;br&gt;支持vmc即可被驱动" style="rounded=0;whiteSpace=wrap;html=1;" parent="SOFfAEYoUV6gIpj9PbRY-33" vertex="1">
          <mxGeometry x="450" y="130" width="120" height="60" as="geometry" />
        </mxCell>
        <mxCell id="SOFfAEYoUV6gIpj9PbRY-40" value="" style="endArrow=classic;html=1;rounded=0;entryX=0;entryY=0.5;entryDx=0;entryDy=0;exitX=1;exitY=0.5;exitDx=0;exitDy=0;" parent="SOFfAEYoUV6gIpj9PbRY-33" source="SOFfAEYoUV6gIpj9PbRY-36" target="SOFfAEYoUV6gIpj9PbRY-39" edge="1">
          <mxGeometry width="50" height="50" relative="1" as="geometry">
            <mxPoint x="390" y="164.5" as="sourcePoint" />
            <mxPoint x="457" y="164.5" as="targetPoint" />
          </mxGeometry>
        </mxCell>
        <mxCell id="SOFfAEYoUV6gIpj9PbRY-41" value="&lt;b&gt;VMC&lt;/b&gt;" style="text;html=1;strokeColor=none;fillColor=none;align=center;verticalAlign=middle;whiteSpace=wrap;rounded=0;" parent="SOFfAEYoUV6gIpj9PbRY-33" vertex="1">
          <mxGeometry x="380" y="130" width="60" height="30" as="geometry" />
        </mxCell>
        <mxCell id="_PYBqEXPpF2akzC7-0be-2" value="" style="swimlane;startSize=0;" vertex="1" parent="1">
          <mxGeometry x="-720" y="320" width="700" height="220" as="geometry" />
        </mxCell>
        <mxCell id="_PYBqEXPpF2akzC7-0be-5" value="" style="swimlane;startSize=0;" vertex="1" parent="_PYBqEXPpF2akzC7-0be-2">
          <mxGeometry x="140" y="10" width="450" height="90" as="geometry" />
        </mxCell>
        <mxCell id="_PYBqEXPpF2akzC7-0be-4" value="TTS&lt;br&gt;文本生成语音" style="rounded=0;whiteSpace=wrap;html=1;" vertex="1" parent="_PYBqEXPpF2akzC7-0be-5">
          <mxGeometry x="307" y="30" width="120" height="40" as="geometry" />
        </mxCell>
        <mxCell id="_PYBqEXPpF2akzC7-0be-3" value="复述模式(Repeat)" style="text;html=1;strokeColor=none;fillColor=none;align=center;verticalAlign=middle;whiteSpace=wrap;rounded=0;" vertex="1" parent="_PYBqEXPpF2akzC7-0be-5">
          <mxGeometry x="170" width="110" height="30" as="geometry" />
        </mxCell>
        <mxCell id="_PYBqEXPpF2akzC7-0be-19" value="Thinking" style="rounded=0;whiteSpace=wrap;html=1;" vertex="1" parent="_PYBqEXPpF2akzC7-0be-5">
          <mxGeometry x="18" y="30" width="120" height="40" as="geometry" />
        </mxCell>
        <mxCell id="_PYBqEXPpF2akzC7-0be-21" value="文本答案" style="rounded=0;whiteSpace=wrap;html=1;" vertex="1" parent="_PYBqEXPpF2akzC7-0be-5">
          <mxGeometry x="160" y="30" width="120" height="40" as="geometry" />
        </mxCell>
        <mxCell id="_PYBqEXPpF2akzC7-0be-25" value="" style="endArrow=classic;html=1;rounded=0;exitX=1;exitY=0.5;exitDx=0;exitDy=0;entryX=0;entryY=0.5;entryDx=0;entryDy=0;" edge="1" parent="_PYBqEXPpF2akzC7-0be-5" source="_PYBqEXPpF2akzC7-0be-19" target="_PYBqEXPpF2akzC7-0be-21">
          <mxGeometry width="50" height="50" relative="1" as="geometry">
            <mxPoint x="170" y="-60" as="sourcePoint" />
            <mxPoint x="220" y="-110" as="targetPoint" />
          </mxGeometry>
        </mxCell>
        <mxCell id="_PYBqEXPpF2akzC7-0be-26" value="" style="endArrow=classic;html=1;rounded=0;exitX=1;exitY=0.5;exitDx=0;exitDy=0;entryX=0;entryY=0.5;entryDx=0;entryDy=0;" edge="1" parent="_PYBqEXPpF2akzC7-0be-5" source="_PYBqEXPpF2akzC7-0be-21" target="_PYBqEXPpF2akzC7-0be-4">
          <mxGeometry width="50" height="50" relative="1" as="geometry">
            <mxPoint x="148" y="60" as="sourcePoint" />
            <mxPoint x="170" y="60" as="targetPoint" />
          </mxGeometry>
        </mxCell>
        <mxCell id="_PYBqEXPpF2akzC7-0be-6" value="" style="swimlane;startSize=0;" vertex="1" parent="_PYBqEXPpF2akzC7-0be-2">
          <mxGeometry x="70" y="110" width="580" height="90" as="geometry" />
        </mxCell>
        <mxCell id="_PYBqEXPpF2akzC7-0be-7" value="ASR&lt;br&gt;自动语音识别" style="rounded=0;whiteSpace=wrap;html=1;" vertex="1" parent="_PYBqEXPpF2akzC7-0be-6">
          <mxGeometry x="20" y="30" width="120" height="40" as="geometry" />
        </mxCell>
        <mxCell id="_PYBqEXPpF2akzC7-0be-8" value="Bot模式" style="text;html=1;strokeColor=none;fillColor=none;align=center;verticalAlign=middle;whiteSpace=wrap;rounded=0;" vertex="1" parent="_PYBqEXPpF2akzC7-0be-6">
          <mxGeometry x="160" width="110" height="30" as="geometry" />
        </mxCell>
        <mxCell id="_PYBqEXPpF2akzC7-0be-9" value="TTS&lt;br style=&quot;border-color: var(--border-color);&quot;&gt;文本生成语音" style="rounded=0;whiteSpace=wrap;html=1;" vertex="1" parent="_PYBqEXPpF2akzC7-0be-6">
          <mxGeometry x="440" y="30" width="120" height="40" as="geometry" />
        </mxCell>
        <mxCell id="_PYBqEXPpF2akzC7-0be-10" value="Thinking" style="rounded=0;whiteSpace=wrap;html=1;" vertex="1" parent="_PYBqEXPpF2akzC7-0be-6">
          <mxGeometry x="160" y="30" width="120" height="40" as="geometry" />
        </mxCell>
        <mxCell id="_PYBqEXPpF2akzC7-0be-11" value="" style="endArrow=classic;html=1;rounded=0;exitX=1;exitY=0.5;exitDx=0;exitDy=0;entryX=0;entryY=0.5;entryDx=0;entryDy=0;" edge="1" parent="_PYBqEXPpF2akzC7-0be-6" source="_PYBqEXPpF2akzC7-0be-7" target="_PYBqEXPpF2akzC7-0be-10">
          <mxGeometry width="50" height="50" relative="1" as="geometry">
            <mxPoint x="150" y="-10" as="sourcePoint" />
            <mxPoint x="200" y="-60" as="targetPoint" />
          </mxGeometry>
        </mxCell>
        <mxCell id="_PYBqEXPpF2akzC7-0be-22" value="文本答案" style="rounded=0;whiteSpace=wrap;html=1;" vertex="1" parent="_PYBqEXPpF2akzC7-0be-6">
          <mxGeometry x="300" y="30" width="120" height="40" as="geometry" />
        </mxCell>
        <mxCell id="_PYBqEXPpF2akzC7-0be-23" value="" style="endArrow=classic;html=1;rounded=0;exitX=1;exitY=0.5;exitDx=0;exitDy=0;entryX=0;entryY=0.5;entryDx=0;entryDy=0;" edge="1" parent="_PYBqEXPpF2akzC7-0be-6" source="_PYBqEXPpF2akzC7-0be-10" target="_PYBqEXPpF2akzC7-0be-22">
          <mxGeometry width="50" height="50" relative="1" as="geometry">
            <mxPoint x="340" y="210" as="sourcePoint" />
            <mxPoint x="390" y="160" as="targetPoint" />
          </mxGeometry>
        </mxCell>
        <mxCell id="_PYBqEXPpF2akzC7-0be-31" value="服务1：生成语音答复" style="text;html=1;strokeColor=none;fillColor=none;align=center;verticalAlign=middle;whiteSpace=wrap;rounded=0;" vertex="1" parent="_PYBqEXPpF2akzC7-0be-2">
          <mxGeometry y="10" width="120" height="30" as="geometry" />
        </mxCell>
        <mxCell id="_PYBqEXPpF2akzC7-0be-13" value="" style="swimlane;startSize=0;" vertex="1" parent="1">
          <mxGeometry x="-1080" y="310" width="270" height="230" as="geometry" />
        </mxCell>
        <mxCell id="_PYBqEXPpF2akzC7-0be-14" value="虚拟形象-Agent" style="text;html=1;strokeColor=none;fillColor=none;align=center;verticalAlign=middle;whiteSpace=wrap;rounded=0;" vertex="1" parent="_PYBqEXPpF2akzC7-0be-13">
          <mxGeometry x="40" width="100" height="30" as="geometry" />
        </mxCell>
        <mxCell id="_PYBqEXPpF2akzC7-0be-15" value="用户输入" style="rounded=0;whiteSpace=wrap;html=1;" vertex="1" parent="_PYBqEXPpF2akzC7-0be-13">
          <mxGeometry x="10" y="110" width="80" height="30" as="geometry" />
        </mxCell>
        <mxCell id="_PYBqEXPpF2akzC7-0be-16" value="输入文字" style="rounded=0;whiteSpace=wrap;html=1;" vertex="1" parent="_PYBqEXPpF2akzC7-0be-13">
          <mxGeometry x="120" y="52.5" width="80" height="35" as="geometry" />
        </mxCell>
        <mxCell id="_PYBqEXPpF2akzC7-0be-17" value="输入语音" style="rounded=0;whiteSpace=wrap;html=1;" vertex="1" parent="_PYBqEXPpF2akzC7-0be-13">
          <mxGeometry x="120" y="155" width="80" height="30" as="geometry" />
        </mxCell>
        <mxCell id="_PYBqEXPpF2akzC7-0be-27" value="" style="endArrow=classic;html=1;rounded=0;exitX=1;exitY=0.5;exitDx=0;exitDy=0;entryX=0;entryY=0.5;entryDx=0;entryDy=0;" edge="1" parent="_PYBqEXPpF2akzC7-0be-13" source="_PYBqEXPpF2akzC7-0be-15" target="_PYBqEXPpF2akzC7-0be-16">
          <mxGeometry width="50" height="50" relative="1" as="geometry">
            <mxPoint x="120" y="-10" as="sourcePoint" />
            <mxPoint x="170" y="-60" as="targetPoint" />
          </mxGeometry>
        </mxCell>
        <mxCell id="_PYBqEXPpF2akzC7-0be-28" value="" style="endArrow=classic;html=1;rounded=0;exitX=1;exitY=0.5;exitDx=0;exitDy=0;entryX=0;entryY=0.5;entryDx=0;entryDy=0;" edge="1" parent="_PYBqEXPpF2akzC7-0be-13" source="_PYBqEXPpF2akzC7-0be-15" target="_PYBqEXPpF2akzC7-0be-17">
          <mxGeometry width="50" height="50" relative="1" as="geometry">
            <mxPoint x="100" y="115" as="sourcePoint" />
            <mxPoint x="120" y="75" as="targetPoint" />
          </mxGeometry>
        </mxCell>
        <mxCell id="_PYBqEXPpF2akzC7-0be-24" value="" style="endArrow=classic;html=1;rounded=0;entryX=0;entryY=0.5;entryDx=0;entryDy=0;" edge="1" parent="1" target="_PYBqEXPpF2akzC7-0be-9">
          <mxGeometry width="50" height="50" relative="1" as="geometry">
            <mxPoint x="-230" y="480" as="sourcePoint" />
            <mxPoint x="-340" y="490" as="targetPoint" />
          </mxGeometry>
        </mxCell>
        <mxCell id="_PYBqEXPpF2akzC7-0be-29" value="" style="endArrow=classic;html=1;rounded=0;exitX=1;exitY=0.5;exitDx=0;exitDy=0;entryX=0;entryY=0.5;entryDx=0;entryDy=0;" edge="1" parent="1" source="_PYBqEXPpF2akzC7-0be-16" target="_PYBqEXPpF2akzC7-0be-19">
          <mxGeometry width="50" height="50" relative="1" as="geometry">
            <mxPoint x="-810" y="410" as="sourcePoint" />
            <mxPoint x="-760" y="360" as="targetPoint" />
          </mxGeometry>
        </mxCell>
        <mxCell id="_PYBqEXPpF2akzC7-0be-30" value="" style="endArrow=classic;html=1;rounded=0;exitX=1;exitY=0.5;exitDx=0;exitDy=0;entryX=0;entryY=0.5;entryDx=0;entryDy=0;" edge="1" parent="1" source="_PYBqEXPpF2akzC7-0be-17" target="_PYBqEXPpF2akzC7-0be-7">
          <mxGeometry width="50" height="50" relative="1" as="geometry">
            <mxPoint x="-730" y="610" as="sourcePoint" />
            <mxPoint x="-680" y="560" as="targetPoint" />
          </mxGeometry>
        </mxCell>
        <mxCell id="_PYBqEXPpF2akzC7-0be-32" value="" style="shape=flexArrow;endArrow=classic;html=1;rounded=0;exitX=1;exitY=0.5;exitDx=0;exitDy=0;entryX=0;entryY=0.5;entryDx=0;entryDy=0;" edge="1" parent="1" source="_PYBqEXPpF2akzC7-0be-2" target="SOFfAEYoUV6gIpj9PbRY-2">
          <mxGeometry width="50" height="50" relative="1" as="geometry">
            <mxPoint x="90" y="730" as="sourcePoint" />
            <mxPoint x="140" y="680" as="targetPoint" />
          </mxGeometry>
        </mxCell>
        <mxCell id="_PYBqEXPpF2akzC7-0be-33" value="设备各自的&lt;br&gt;Livelink SDK" style="rounded=0;whiteSpace=wrap;html=1;" vertex="1" parent="1">
          <mxGeometry x="452" y="830" width="120" height="60" as="geometry" />
        </mxCell>
        <mxCell id="_PYBqEXPpF2akzC7-0be-34" value="设备APP&lt;br&gt;处理硬件返回的数据" style="rounded=0;whiteSpace=wrap;html=1;" vertex="1" parent="1">
          <mxGeometry x="260" y="830" width="120" height="60" as="geometry" />
        </mxCell>
        <mxCell id="_PYBqEXPpF2akzC7-0be-35" value="工程侧&lt;br&gt;处理RawData" style="rounded=0;whiteSpace=wrap;html=1;" vertex="1" parent="1">
          <mxGeometry x="652" y="830" width="120" height="60" as="geometry" />
        </mxCell>
        <mxCell id="_PYBqEXPpF2akzC7-0be-36" value="工程侧&lt;br&gt;必要的轴向处理" style="rounded=0;whiteSpace=wrap;html=1;" vertex="1" parent="1">
          <mxGeometry x="842" y="830" width="120" height="60" as="geometry" />
        </mxCell>
        <mxCell id="_PYBqEXPpF2akzC7-0be-37" value="工程测&lt;br&gt;重定向Retarget&lt;br&gt;IK等处理" style="rounded=0;whiteSpace=wrap;html=1;" vertex="1" parent="1">
          <mxGeometry x="1022" y="830" width="120" height="60" as="geometry" />
        </mxCell>
        <mxCell id="_PYBqEXPpF2akzC7-0be-38" value="工程侧&lt;br&gt;Avatar" style="rounded=0;whiteSpace=wrap;html=1;" vertex="1" parent="1">
          <mxGeometry x="1202" y="830" width="120" height="60" as="geometry" />
        </mxCell>
        <mxCell id="_PYBqEXPpF2akzC7-0be-39" value="" style="endArrow=classic;html=1;rounded=0;exitX=1;exitY=0.5;exitDx=0;exitDy=0;entryX=0;entryY=0.5;entryDx=0;entryDy=0;" edge="1" parent="1" source="_PYBqEXPpF2akzC7-0be-34" target="_PYBqEXPpF2akzC7-0be-33">
          <mxGeometry width="50" height="50" relative="1" as="geometry">
            <mxPoint x="442" y="1020" as="sourcePoint" />
            <mxPoint x="492" y="970" as="targetPoint" />
          </mxGeometry>
        </mxCell>
        <mxCell id="_PYBqEXPpF2akzC7-0be-40" value="" style="endArrow=classic;html=1;rounded=0;exitX=1;exitY=0.5;exitDx=0;exitDy=0;entryX=0;entryY=0.5;entryDx=0;entryDy=0;" edge="1" parent="1" source="_PYBqEXPpF2akzC7-0be-33" target="_PYBqEXPpF2akzC7-0be-35">
          <mxGeometry width="50" height="50" relative="1" as="geometry">
            <mxPoint x="390" y="870" as="sourcePoint" />
            <mxPoint x="462" y="870" as="targetPoint" />
          </mxGeometry>
        </mxCell>
        <mxCell id="_PYBqEXPpF2akzC7-0be-41" value="" style="endArrow=classic;html=1;rounded=0;exitX=1;exitY=0.5;exitDx=0;exitDy=0;entryX=0;entryY=0.5;entryDx=0;entryDy=0;" edge="1" parent="1" source="_PYBqEXPpF2akzC7-0be-35" target="_PYBqEXPpF2akzC7-0be-36">
          <mxGeometry width="50" height="50" relative="1" as="geometry">
            <mxPoint x="582" y="870" as="sourcePoint" />
            <mxPoint x="662" y="870" as="targetPoint" />
          </mxGeometry>
        </mxCell>
        <mxCell id="_PYBqEXPpF2akzC7-0be-42" value="" style="endArrow=classic;html=1;rounded=0;exitX=1;exitY=0.5;exitDx=0;exitDy=0;entryX=0;entryY=0.5;entryDx=0;entryDy=0;" edge="1" parent="1" source="_PYBqEXPpF2akzC7-0be-36" target="_PYBqEXPpF2akzC7-0be-37">
          <mxGeometry width="50" height="50" relative="1" as="geometry">
            <mxPoint x="932" y="990" as="sourcePoint" />
            <mxPoint x="982" y="940" as="targetPoint" />
          </mxGeometry>
        </mxCell>
        <mxCell id="_PYBqEXPpF2akzC7-0be-43" value="" style="endArrow=classic;html=1;rounded=0;exitX=1;exitY=0.5;exitDx=0;exitDy=0;entryX=0;entryY=0.5;entryDx=0;entryDy=0;" edge="1" parent="1" source="_PYBqEXPpF2akzC7-0be-37" target="_PYBqEXPpF2akzC7-0be-38">
          <mxGeometry width="50" height="50" relative="1" as="geometry">
            <mxPoint x="1222" y="1030" as="sourcePoint" />
            <mxPoint x="1272" y="980" as="targetPoint" />
          </mxGeometry>
        </mxCell>
        <mxCell id="_PYBqEXPpF2akzC7-0be-44" value="驱动" style="text;html=1;strokeColor=none;fillColor=none;align=center;verticalAlign=middle;whiteSpace=wrap;rounded=0;" vertex="1" parent="1">
          <mxGeometry x="1142" y="830" width="60" height="30" as="geometry" />
        </mxCell>
        <mxCell id="_PYBqEXPpF2akzC7-0be-45" value="旋转数据" style="text;html=1;strokeColor=none;fillColor=none;align=center;verticalAlign=middle;whiteSpace=wrap;rounded=0;" vertex="1" parent="1">
          <mxGeometry x="772" y="830" width="60" height="30" as="geometry" />
        </mxCell>
        <mxCell id="_PYBqEXPpF2akzC7-0be-46" value="位置数据" style="text;html=1;strokeColor=none;fillColor=none;align=center;verticalAlign=middle;whiteSpace=wrap;rounded=0;" vertex="1" parent="1">
          <mxGeometry x="772" y="860" width="60" height="30" as="geometry" />
        </mxCell>
        <mxCell id="_PYBqEXPpF2akzC7-0be-48" value="骨骼统一" style="text;html=1;strokeColor=none;fillColor=none;align=center;verticalAlign=middle;whiteSpace=wrap;rounded=0;" vertex="1" parent="1">
          <mxGeometry x="962" y="831" width="60" height="30" as="geometry" />
        </mxCell>
        <mxCell id="_PYBqEXPpF2akzC7-0be-51" value="Actor" style="shape=umlActor;verticalLabelPosition=bottom;verticalAlign=top;html=1;outlineConnect=0;" vertex="1" parent="1">
          <mxGeometry x="900" y="1225" width="30" height="60" as="geometry" />
        </mxCell>
        <mxCell id="_PYBqEXPpF2akzC7-0be-52" value="用户选择画面输入源" style="rounded=0;whiteSpace=wrap;html=1;" vertex="1" parent="1">
          <mxGeometry x="60" y="1225" width="120" height="60" as="geometry" />
        </mxCell>
        <mxCell id="_PYBqEXPpF2akzC7-0be-53" value="动捕画面捕获&lt;br&gt;ImageSource" style="swimlane;fontStyle=0;childLayout=stackLayout;horizontal=1;startSize=30;horizontalStack=0;resizeParent=1;resizeParentMax=0;resizeLast=0;collapsible=1;marginBottom=0;whiteSpace=wrap;html=1;" vertex="1" parent="1">
          <mxGeometry x="260" y="1140" width="140" height="240" as="geometry" />
        </mxCell>
        <mxCell id="_PYBqEXPpF2akzC7-0be-54" value="&lt;div data-docx-has-block-data=&quot;false&quot; data-page-id=&quot;Oj2zdroevo4ME5xzwGNcvZegnKf&quot;&gt;&lt;ol class=&quot;list-number1&quot; start=&quot;1&quot;&gt;&lt;li data-list=&quot;number&quot; class=&quot;ace-line ace-line old-record-id-doxcnwO4HPn8hAYy36f33DJuzih&quot;&gt;静态图片&lt;/li&gt;&lt;/ol&gt;&lt;/div&gt;" style="text;strokeColor=none;fillColor=none;align=left;verticalAlign=middle;spacingLeft=4;spacingRight=4;overflow=hidden;points=[[0,0.5],[1,0.5]];portConstraint=eastwest;rotatable=0;whiteSpace=wrap;html=1;" vertex="1" parent="_PYBqEXPpF2akzC7-0be-53">
          <mxGeometry y="30" width="140" height="30" as="geometry" />
        </mxCell>
        <mxCell id="_PYBqEXPpF2akzC7-0be-55" value="&lt;div data-docx-has-block-data=&quot;false&quot; data-page-id=&quot;Oj2zdroevo4ME5xzwGNcvZegnKf&quot;&gt;&lt;ol class=&quot;list-number1&quot; start=&quot;2&quot;&gt;&lt;li data-list=&quot;number&quot; class=&quot;ace-line ace-line old-record-id-doxcnbyfMpkCnTLZaxTBiQJM3je&quot;&gt;视频&lt;/li&gt;&lt;/ol&gt;&lt;/div&gt;" style="text;strokeColor=none;fillColor=none;align=left;verticalAlign=middle;spacingLeft=4;spacingRight=4;overflow=hidden;points=[[0,0.5],[1,0.5]];portConstraint=eastwest;rotatable=0;whiteSpace=wrap;html=1;" vertex="1" parent="_PYBqEXPpF2akzC7-0be-53">
          <mxGeometry y="60" width="140" height="30" as="geometry" />
        </mxCell>
        <mxCell id="_PYBqEXPpF2akzC7-0be-56" value="&lt;div data-docx-has-block-data=&quot;false&quot; data-page-id=&quot;Oj2zdroevo4ME5xzwGNcvZegnKf&quot;&gt;&lt;ol class=&quot;list-number1&quot; start=&quot;3&quot;&gt;&lt;li data-list=&quot;number&quot; class=&quot;ace-line ace-line old-record-id-doxcnJdCeVdKooFLhx7i0cv2VTi&quot;&gt;WebCamera摄像头&lt;/li&gt;&lt;/ol&gt;&lt;/div&gt;" style="text;strokeColor=none;fillColor=none;align=left;verticalAlign=middle;spacingLeft=4;spacingRight=4;overflow=hidden;points=[[0,0.5],[1,0.5]];portConstraint=eastwest;rotatable=0;whiteSpace=wrap;html=1;" vertex="1" parent="_PYBqEXPpF2akzC7-0be-53">
          <mxGeometry y="90" width="140" height="50" as="geometry" />
        </mxCell>
        <mxCell id="_PYBqEXPpF2akzC7-0be-58" value="&lt;div data-docx-has-block-data=&quot;false&quot; data-page-id=&quot;Oj2zdroevo4ME5xzwGNcvZegnKf&quot;&gt;&lt;div&gt;&lt;div data-docx-has-block-data=&quot;false&quot; data-page-id=&quot;Oj2zdroevo4ME5xzwGNcvZegnKf&quot;&gt;&lt;ol class=&quot;list-number1&quot; start=&quot;4&quot;&gt;&lt;li data-list=&quot;number&quot; class=&quot;ace-line ace-line old-record-id-CeY9dwkbzoZx75xH0COcR9SPnAh&quot;&gt;&lt;a href=&quot;https://github.com/leadedge/Spout2&quot;&gt;Spout2&lt;/a&gt;(windows), &lt;a href=&quot;https://github.com/Syphon&quot;&gt;Syphon&lt;/a&gt;(Mac)&lt;/li&gt;&lt;/ol&gt;&lt;/div&gt;&lt;/div&gt;&lt;/div&gt;" style="text;strokeColor=none;fillColor=none;align=left;verticalAlign=middle;spacingLeft=4;spacingRight=4;overflow=hidden;points=[[0,0.5],[1,0.5]];portConstraint=eastwest;rotatable=0;whiteSpace=wrap;html=1;" vertex="1" parent="_PYBqEXPpF2akzC7-0be-53">
          <mxGeometry y="140" width="140" height="50" as="geometry" />
        </mxCell>
        <mxCell id="_PYBqEXPpF2akzC7-0be-59" value="&lt;div data-docx-has-block-data=&quot;false&quot; data-page-id=&quot;Oj2zdroevo4ME5xzwGNcvZegnKf&quot;&gt;&lt;ol class=&quot;list-number1&quot; start=&quot;5&quot;&gt;&lt;li data-list=&quot;number&quot; class=&quot;ace-line ace-line old-record-id-SOx6dJjIhojLR3xNHBzcDVw0nUg&quot;&gt;NDI&lt;/li&gt;&lt;/ol&gt;&lt;/div&gt;" style="text;strokeColor=none;fillColor=none;align=left;verticalAlign=middle;spacingLeft=4;spacingRight=4;overflow=hidden;points=[[0,0.5],[1,0.5]];portConstraint=eastwest;rotatable=0;whiteSpace=wrap;html=1;" vertex="1" parent="_PYBqEXPpF2akzC7-0be-53">
          <mxGeometry y="190" width="140" height="50" as="geometry" />
        </mxCell>
        <mxCell id="_PYBqEXPpF2akzC7-0be-60" value="CV动捕进程&lt;br&gt;AvatarSDK" style="rounded=0;whiteSpace=wrap;html=1;" vertex="1" parent="1">
          <mxGeometry x="480" y="1225" width="120" height="60" as="geometry" />
        </mxCell>
        <mxCell id="_PYBqEXPpF2akzC7-0be-61" value="工程侧&lt;br&gt;处理Raw数据&lt;br&gt;重定向&amp;amp;IK等处理" style="rounded=0;whiteSpace=wrap;html=1;" vertex="1" parent="1">
          <mxGeometry x="660" y="1225" width="120" height="60" as="geometry" />
        </mxCell>
        <mxCell id="_PYBqEXPpF2akzC7-0be-62" value="" style="shape=flexArrow;endArrow=classic;html=1;rounded=0;exitX=1;exitY=0.5;exitDx=0;exitDy=0;entryX=0;entryY=0.5;entryDx=0;entryDy=0;" edge="1" parent="1" source="_PYBqEXPpF2akzC7-0be-52" target="_PYBqEXPpF2akzC7-0be-56">
          <mxGeometry width="50" height="50" relative="1" as="geometry">
            <mxPoint x="200" y="1260" as="sourcePoint" />
            <mxPoint x="250" y="1210" as="targetPoint" />
          </mxGeometry>
        </mxCell>
        <mxCell id="_PYBqEXPpF2akzC7-0be-63" value="" style="shape=flexArrow;endArrow=classic;html=1;rounded=0;exitX=1;exitY=0.5;exitDx=0;exitDy=0;entryX=0;entryY=0.5;entryDx=0;entryDy=0;" edge="1" parent="1" source="_PYBqEXPpF2akzC7-0be-56" target="_PYBqEXPpF2akzC7-0be-60">
          <mxGeometry width="50" height="50" relative="1" as="geometry">
            <mxPoint x="190" y="1265" as="sourcePoint" />
            <mxPoint x="270" y="1265" as="targetPoint" />
          </mxGeometry>
        </mxCell>
        <mxCell id="_PYBqEXPpF2akzC7-0be-64" value="" style="shape=flexArrow;endArrow=classic;html=1;rounded=0;exitX=1;exitY=0.5;exitDx=0;exitDy=0;entryX=0;entryY=0.5;entryDx=0;entryDy=0;" edge="1" parent="1" source="_PYBqEXPpF2akzC7-0be-60" target="_PYBqEXPpF2akzC7-0be-61">
          <mxGeometry width="50" height="50" relative="1" as="geometry">
            <mxPoint x="630" y="1330" as="sourcePoint" />
            <mxPoint x="710" y="1330" as="targetPoint" />
          </mxGeometry>
        </mxCell>
        <mxCell id="_PYBqEXPpF2akzC7-0be-65" value="" style="shape=flexArrow;endArrow=classic;html=1;rounded=0;exitX=1;exitY=0.5;exitDx=0;exitDy=0;" edge="1" parent="1" source="_PYBqEXPpF2akzC7-0be-61">
          <mxGeometry width="50" height="50" relative="1" as="geometry">
            <mxPoint x="720" y="1350" as="sourcePoint" />
            <mxPoint x="880" y="1255" as="targetPoint" />
          </mxGeometry>
        </mxCell>
        <mxCell id="_PYBqEXPpF2akzC7-0be-66" value="驱动" style="text;html=1;strokeColor=none;fillColor=none;align=center;verticalAlign=middle;whiteSpace=wrap;rounded=0;" vertex="1" parent="1">
          <mxGeometry x="800" y="1210" width="60" height="30" as="geometry" />
        </mxCell>
        <mxCell id="_PYBqEXPpF2akzC7-0be-67" value="Actor" style="shape=umlActor;verticalLabelPosition=bottom;verticalAlign=top;html=1;outlineConnect=0;" vertex="1" parent="1">
          <mxGeometry x="887" y="1565" width="30" height="60" as="geometry" />
        </mxCell>
        <mxCell id="_PYBqEXPpF2akzC7-0be-68" value="用户上下文" style="rounded=0;whiteSpace=wrap;html=1;" vertex="1" parent="1">
          <mxGeometry x="440" y="1680" width="120" height="60" as="geometry" />
        </mxCell>
        <mxCell id="_PYBqEXPpF2akzC7-0be-84" value="场景运镜" style="rounded=0;whiteSpace=wrap;html=1;" vertex="1" parent="1">
          <mxGeometry x="750" y="1680" width="120" height="60" as="geometry" />
        </mxCell>
        <mxCell id="_PYBqEXPpF2akzC7-0be-85" value="BGM" style="rounded=0;whiteSpace=wrap;html=1;" vertex="1" parent="1">
          <mxGeometry x="750" y="1790" width="120" height="60" as="geometry" />
        </mxCell>
        <mxCell id="_PYBqEXPpF2akzC7-0be-88" value="场景画面帧捕获&lt;br&gt;收音" style="rounded=0;whiteSpace=wrap;html=1;" vertex="1" parent="1">
          <mxGeometry x="1040" y="1680" width="120" height="60" as="geometry" />
        </mxCell>
        <mxCell id="_PYBqEXPpF2akzC7-0be-89" value="录制完毕？" style="rhombus;whiteSpace=wrap;html=1;" vertex="1" parent="1">
          <mxGeometry x="1240" y="1670" width="80" height="80" as="geometry" />
        </mxCell>
        <mxCell id="_PYBqEXPpF2akzC7-0be-90" value="" style="endArrow=classic;html=1;rounded=0;exitX=0.5;exitY=0;exitDx=0;exitDy=0;entryX=0.5;entryY=0;entryDx=0;entryDy=0;" edge="1" parent="1" source="_PYBqEXPpF2akzC7-0be-89" target="_PYBqEXPpF2akzC7-0be-88">
          <mxGeometry width="50" height="50" relative="1" as="geometry">
            <mxPoint x="1260" y="1560" as="sourcePoint" />
            <mxPoint x="1310" y="1510" as="targetPoint" />
            <Array as="points">
              <mxPoint x="1280" y="1610" />
              <mxPoint x="1100" y="1610" />
            </Array>
          </mxGeometry>
        </mxCell>
        <mxCell id="_PYBqEXPpF2akzC7-0be-91" value="" style="endArrow=classic;html=1;rounded=0;exitX=1;exitY=0.5;exitDx=0;exitDy=0;entryX=0;entryY=0.5;entryDx=0;entryDy=0;" edge="1" parent="1" source="_PYBqEXPpF2akzC7-0be-89" target="_PYBqEXPpF2akzC7-0be-92">
          <mxGeometry width="50" height="50" relative="1" as="geometry">
            <mxPoint x="1390" y="1720" as="sourcePoint" />
            <mxPoint x="1440" y="1700" as="targetPoint" />
          </mxGeometry>
        </mxCell>
        <mxCell id="_PYBqEXPpF2akzC7-0be-92" value="帧合成视频&lt;br&gt;输出为MP4" style="rounded=0;whiteSpace=wrap;html=1;" vertex="1" parent="1">
          <mxGeometry x="1440" y="1680" width="120" height="60" as="geometry" />
        </mxCell>
        <mxCell id="_PYBqEXPpF2akzC7-0be-93" value="" style="endArrow=none;html=1;rounded=0;entryX=0;entryY=0.5;entryDx=0;entryDy=0;" edge="1" parent="1" target="_PYBqEXPpF2akzC7-0be-88">
          <mxGeometry width="50" height="50" relative="1" as="geometry">
            <mxPoint x="930" y="1590" as="sourcePoint" />
            <mxPoint x="1020" y="1590" as="targetPoint" />
            <Array as="points">
              <mxPoint x="1000" y="1590" />
              <mxPoint x="1000" y="1710" />
            </Array>
          </mxGeometry>
        </mxCell>
        <mxCell id="_PYBqEXPpF2akzC7-0be-94" value="" style="endArrow=none;html=1;rounded=0;exitX=1;exitY=0.5;exitDx=0;exitDy=0;entryX=0;entryY=0.5;entryDx=0;entryDy=0;" edge="1" parent="1" source="_PYBqEXPpF2akzC7-0be-84" target="_PYBqEXPpF2akzC7-0be-88">
          <mxGeometry width="50" height="50" relative="1" as="geometry">
            <mxPoint x="990" y="1780" as="sourcePoint" />
            <mxPoint x="1040" y="1730" as="targetPoint" />
          </mxGeometry>
        </mxCell>
        <mxCell id="_PYBqEXPpF2akzC7-0be-95" value="" style="endArrow=none;html=1;rounded=0;exitX=1;exitY=0.5;exitDx=0;exitDy=0;entryX=0;entryY=0.5;entryDx=0;entryDy=0;" edge="1" parent="1" source="_PYBqEXPpF2akzC7-0be-85" target="_PYBqEXPpF2akzC7-0be-88">
          <mxGeometry width="50" height="50" relative="1" as="geometry">
            <mxPoint x="1020" y="1900" as="sourcePoint" />
            <mxPoint x="1070" y="1850" as="targetPoint" />
            <Array as="points">
              <mxPoint x="1000" y="1820" />
              <mxPoint x="1000" y="1710" />
            </Array>
          </mxGeometry>
        </mxCell>
        <mxCell id="_PYBqEXPpF2akzC7-0be-96" value="" style="endArrow=classic;html=1;rounded=0;exitX=1;exitY=0.5;exitDx=0;exitDy=0;entryX=0;entryY=0.5;entryDx=0;entryDy=0;" edge="1" parent="1" source="_PYBqEXPpF2akzC7-0be-88" target="_PYBqEXPpF2akzC7-0be-89">
          <mxGeometry width="50" height="50" relative="1" as="geometry">
            <mxPoint x="1250" y="1850" as="sourcePoint" />
            <mxPoint x="1300" y="1800" as="targetPoint" />
          </mxGeometry>
        </mxCell>
        <mxCell id="_PYBqEXPpF2akzC7-0be-97" value="N" style="text;html=1;strokeColor=none;fillColor=none;align=center;verticalAlign=middle;whiteSpace=wrap;rounded=0;" vertex="1" parent="1">
          <mxGeometry x="1160" y="1580" width="60" height="30" as="geometry" />
        </mxCell>
        <mxCell id="_PYBqEXPpF2akzC7-0be-98" value="Y" style="text;html=1;strokeColor=none;fillColor=none;align=center;verticalAlign=middle;whiteSpace=wrap;rounded=0;" vertex="1" parent="1">
          <mxGeometry x="1262" y="1640" width="60" height="30" as="geometry" />
        </mxCell>
        <mxCell id="_PYBqEXPpF2akzC7-0be-99" value="视频输入源" style="rounded=0;whiteSpace=wrap;html=1;" vertex="1" parent="1">
          <mxGeometry x="580" y="1565" width="120" height="60" as="geometry" />
        </mxCell>
        <mxCell id="_PYBqEXPpF2akzC7-0be-100" value="CV实时动捕" style="rounded=0;whiteSpace=wrap;html=1;" vertex="1" parent="1">
          <mxGeometry x="750" y="1565" width="120" height="60" as="geometry" />
        </mxCell>
        <mxCell id="_PYBqEXPpF2akzC7-0be-101" value="" style="endArrow=classic;html=1;rounded=0;entryX=0.5;entryY=1;entryDx=0;entryDy=0;exitX=1;exitY=0.5;exitDx=0;exitDy=0;" edge="1" parent="1" source="_PYBqEXPpF2akzC7-0be-68" target="_PYBqEXPpF2akzC7-0be-99">
          <mxGeometry width="50" height="50" relative="1" as="geometry">
            <mxPoint x="620" y="1930" as="sourcePoint" />
            <mxPoint x="670" y="1880" as="targetPoint" />
          </mxGeometry>
        </mxCell>
        <mxCell id="_PYBqEXPpF2akzC7-0be-102" value="" style="endArrow=classic;html=1;rounded=0;entryX=0;entryY=0.5;entryDx=0;entryDy=0;exitX=1;exitY=0.5;exitDx=0;exitDy=0;" edge="1" parent="1" source="_PYBqEXPpF2akzC7-0be-68" target="_PYBqEXPpF2akzC7-0be-85">
          <mxGeometry width="50" height="50" relative="1" as="geometry">
            <mxPoint x="680" y="1690" as="sourcePoint" />
            <mxPoint x="680" y="1650" as="targetPoint" />
          </mxGeometry>
        </mxCell>
        <mxCell id="_PYBqEXPpF2akzC7-0be-103" value="" style="endArrow=classic;html=1;rounded=0;exitX=1;exitY=0.5;exitDx=0;exitDy=0;entryX=0;entryY=0.5;entryDx=0;entryDy=0;" edge="1" parent="1" source="_PYBqEXPpF2akzC7-0be-68" target="_PYBqEXPpF2akzC7-0be-84">
          <mxGeometry width="50" height="50" relative="1" as="geometry">
            <mxPoint x="680" y="1740" as="sourcePoint" />
            <mxPoint x="730" y="1690" as="targetPoint" />
          </mxGeometry>
        </mxCell>
        <mxCell id="_PYBqEXPpF2akzC7-0be-104" value="" style="endArrow=classic;html=1;rounded=0;exitX=1;exitY=0.5;exitDx=0;exitDy=0;entryX=0;entryY=0.5;entryDx=0;entryDy=0;" edge="1" parent="1" source="_PYBqEXPpF2akzC7-0be-99" target="_PYBqEXPpF2akzC7-0be-100">
          <mxGeometry width="50" height="50" relative="1" as="geometry">
            <mxPoint x="730" y="1540" as="sourcePoint" />
            <mxPoint x="780" y="1490" as="targetPoint" />
          </mxGeometry>
        </mxCell>
        <mxCell id="_PYBqEXPpF2akzC7-0be-105" value="Actor" style="shape=umlActor;verticalLabelPosition=bottom;verticalAlign=top;html=1;outlineConnect=0;" vertex="1" parent="1">
          <mxGeometry x="859" y="2340" width="30" height="60" as="geometry" />
        </mxCell>
        <mxCell id="_PYBqEXPpF2akzC7-0be-106" value="用户上下文" style="rounded=0;whiteSpace=wrap;html=1;" vertex="1" parent="1">
          <mxGeometry x="180" y="2455" width="120" height="60" as="geometry" />
        </mxCell>
        <mxCell id="_PYBqEXPpF2akzC7-0be-107" value="场景运镜" style="rounded=0;whiteSpace=wrap;html=1;" vertex="1" parent="1">
          <mxGeometry x="722" y="2455" width="120" height="60" as="geometry" />
        </mxCell>
        <mxCell id="_PYBqEXPpF2akzC7-0be-108" value="BGM" style="rounded=0;whiteSpace=wrap;html=1;" vertex="1" parent="1">
          <mxGeometry x="722" y="2565" width="120" height="60" as="geometry" />
        </mxCell>
        <mxCell id="_PYBqEXPpF2akzC7-0be-109" value="场景画面帧捕获&lt;br&gt;收音" style="rounded=0;whiteSpace=wrap;html=1;" vertex="1" parent="1">
          <mxGeometry x="1012" y="2455" width="120" height="60" as="geometry" />
        </mxCell>
        <mxCell id="_PYBqEXPpF2akzC7-0be-110" value="录制完毕？" style="rhombus;whiteSpace=wrap;html=1;" vertex="1" parent="1">
          <mxGeometry x="1212" y="2445" width="80" height="80" as="geometry" />
        </mxCell>
        <mxCell id="_PYBqEXPpF2akzC7-0be-111" value="" style="endArrow=classic;html=1;rounded=0;exitX=0.5;exitY=0;exitDx=0;exitDy=0;entryX=0.5;entryY=0;entryDx=0;entryDy=0;" edge="1" parent="1" source="_PYBqEXPpF2akzC7-0be-110" target="_PYBqEXPpF2akzC7-0be-109">
          <mxGeometry width="50" height="50" relative="1" as="geometry">
            <mxPoint x="1232" y="2335" as="sourcePoint" />
            <mxPoint x="1282" y="2285" as="targetPoint" />
            <Array as="points">
              <mxPoint x="1252" y="2385" />
              <mxPoint x="1072" y="2385" />
            </Array>
          </mxGeometry>
        </mxCell>
        <mxCell id="_PYBqEXPpF2akzC7-0be-112" value="" style="endArrow=classic;html=1;rounded=0;exitX=1;exitY=0.5;exitDx=0;exitDy=0;entryX=0;entryY=0.5;entryDx=0;entryDy=0;" edge="1" parent="1" source="_PYBqEXPpF2akzC7-0be-110" target="_PYBqEXPpF2akzC7-0be-113">
          <mxGeometry width="50" height="50" relative="1" as="geometry">
            <mxPoint x="1362" y="2495" as="sourcePoint" />
            <mxPoint x="1412" y="2475" as="targetPoint" />
          </mxGeometry>
        </mxCell>
        <mxCell id="_PYBqEXPpF2akzC7-0be-113" value="帧合成视频&lt;br&gt;输出为MP4" style="rounded=0;whiteSpace=wrap;html=1;" vertex="1" parent="1">
          <mxGeometry x="1412" y="2455" width="120" height="60" as="geometry" />
        </mxCell>
        <mxCell id="_PYBqEXPpF2akzC7-0be-114" value="" style="endArrow=none;html=1;rounded=0;entryX=0;entryY=0.5;entryDx=0;entryDy=0;" edge="1" parent="1" target="_PYBqEXPpF2akzC7-0be-109">
          <mxGeometry width="50" height="50" relative="1" as="geometry">
            <mxPoint x="902" y="2365" as="sourcePoint" />
            <mxPoint x="992" y="2365" as="targetPoint" />
            <Array as="points">
              <mxPoint x="972" y="2365" />
              <mxPoint x="972" y="2485" />
            </Array>
          </mxGeometry>
        </mxCell>
        <mxCell id="_PYBqEXPpF2akzC7-0be-115" value="" style="endArrow=none;html=1;rounded=0;exitX=1;exitY=0.5;exitDx=0;exitDy=0;entryX=0;entryY=0.5;entryDx=0;entryDy=0;" edge="1" parent="1" source="_PYBqEXPpF2akzC7-0be-107" target="_PYBqEXPpF2akzC7-0be-109">
          <mxGeometry width="50" height="50" relative="1" as="geometry">
            <mxPoint x="962" y="2555" as="sourcePoint" />
            <mxPoint x="1012" y="2505" as="targetPoint" />
          </mxGeometry>
        </mxCell>
        <mxCell id="_PYBqEXPpF2akzC7-0be-116" value="" style="endArrow=none;html=1;rounded=0;exitX=1;exitY=0.5;exitDx=0;exitDy=0;entryX=0;entryY=0.5;entryDx=0;entryDy=0;" edge="1" parent="1" source="_PYBqEXPpF2akzC7-0be-108" target="_PYBqEXPpF2akzC7-0be-109">
          <mxGeometry width="50" height="50" relative="1" as="geometry">
            <mxPoint x="992" y="2675" as="sourcePoint" />
            <mxPoint x="1042" y="2625" as="targetPoint" />
            <Array as="points">
              <mxPoint x="972" y="2595" />
              <mxPoint x="972" y="2485" />
            </Array>
          </mxGeometry>
        </mxCell>
        <mxCell id="_PYBqEXPpF2akzC7-0be-117" value="" style="endArrow=classic;html=1;rounded=0;exitX=1;exitY=0.5;exitDx=0;exitDy=0;entryX=0;entryY=0.5;entryDx=0;entryDy=0;" edge="1" parent="1" source="_PYBqEXPpF2akzC7-0be-109" target="_PYBqEXPpF2akzC7-0be-110">
          <mxGeometry width="50" height="50" relative="1" as="geometry">
            <mxPoint x="1222" y="2625" as="sourcePoint" />
            <mxPoint x="1272" y="2575" as="targetPoint" />
          </mxGeometry>
        </mxCell>
        <mxCell id="_PYBqEXPpF2akzC7-0be-118" value="N" style="text;html=1;strokeColor=none;fillColor=none;align=center;verticalAlign=middle;whiteSpace=wrap;rounded=0;" vertex="1" parent="1">
          <mxGeometry x="1132" y="2355" width="60" height="30" as="geometry" />
        </mxCell>
        <mxCell id="_PYBqEXPpF2akzC7-0be-119" value="Y" style="text;html=1;strokeColor=none;fillColor=none;align=center;verticalAlign=middle;whiteSpace=wrap;rounded=0;" vertex="1" parent="1">
          <mxGeometry x="1234" y="2415" width="60" height="30" as="geometry" />
        </mxCell>
        <mxCell id="_PYBqEXPpF2akzC7-0be-120" value="视频输入源" style="rounded=0;whiteSpace=wrap;html=1;" vertex="1" parent="1">
          <mxGeometry x="320" y="2340" width="120" height="60" as="geometry" />
        </mxCell>
        <mxCell id="_PYBqEXPpF2akzC7-0be-121" value="动作文件驱动" style="rounded=0;whiteSpace=wrap;html=1;" vertex="1" parent="1">
          <mxGeometry x="722" y="2340" width="120" height="60" as="geometry" />
        </mxCell>
        <mxCell id="_PYBqEXPpF2akzC7-0be-122" value="" style="endArrow=classic;html=1;rounded=0;entryX=0.5;entryY=1;entryDx=0;entryDy=0;exitX=1;exitY=0.5;exitDx=0;exitDy=0;" edge="1" parent="1" source="_PYBqEXPpF2akzC7-0be-106" target="_PYBqEXPpF2akzC7-0be-120">
          <mxGeometry width="50" height="50" relative="1" as="geometry">
            <mxPoint x="592" y="2705" as="sourcePoint" />
            <mxPoint x="642" y="2655" as="targetPoint" />
          </mxGeometry>
        </mxCell>
        <mxCell id="_PYBqEXPpF2akzC7-0be-123" value="" style="endArrow=classic;html=1;rounded=0;entryX=0;entryY=0.5;entryDx=0;entryDy=0;exitX=1;exitY=0.5;exitDx=0;exitDy=0;" edge="1" parent="1" source="_PYBqEXPpF2akzC7-0be-106" target="_PYBqEXPpF2akzC7-0be-108">
          <mxGeometry width="50" height="50" relative="1" as="geometry">
            <mxPoint x="652" y="2465" as="sourcePoint" />
            <mxPoint x="652" y="2425" as="targetPoint" />
          </mxGeometry>
        </mxCell>
        <mxCell id="_PYBqEXPpF2akzC7-0be-124" value="" style="endArrow=classic;html=1;rounded=0;exitX=1;exitY=0.5;exitDx=0;exitDy=0;entryX=0;entryY=0.5;entryDx=0;entryDy=0;" edge="1" parent="1" source="_PYBqEXPpF2akzC7-0be-106" target="_PYBqEXPpF2akzC7-0be-107">
          <mxGeometry width="50" height="50" relative="1" as="geometry">
            <mxPoint x="652" y="2515" as="sourcePoint" />
            <mxPoint x="702" y="2465" as="targetPoint" />
          </mxGeometry>
        </mxCell>
        <mxCell id="_PYBqEXPpF2akzC7-0be-130" value="" style="swimlane;startSize=0;" vertex="1" parent="1">
          <mxGeometry x="470" y="1910" width="200" height="520" as="geometry" />
        </mxCell>
        <mxCell id="_PYBqEXPpF2akzC7-0be-126" value="视频按指定帧率&lt;br&gt;切片出若干单图" style="shape=process;whiteSpace=wrap;html=1;backgroundOutline=1;" vertex="1" parent="_PYBqEXPpF2akzC7-0be-130">
          <mxGeometry x="40" y="20" width="120" height="60" as="geometry" />
        </mxCell>
        <mxCell id="_PYBqEXPpF2akzC7-0be-127" value="CV动捕逐帧处理输入图像信息" style="shape=process;whiteSpace=wrap;html=1;backgroundOutline=1;" vertex="1" parent="_PYBqEXPpF2akzC7-0be-130">
          <mxGeometry x="40" y="110" width="120" height="60" as="geometry" />
        </mxCell>
        <mxCell id="_PYBqEXPpF2akzC7-0be-128" value="动捕输出四元数&lt;br&gt;转化为bvh的帧数据" style="shape=process;whiteSpace=wrap;html=1;backgroundOutline=1;" vertex="1" parent="_PYBqEXPpF2akzC7-0be-130">
          <mxGeometry x="20" y="210" width="160" height="60" as="geometry" />
        </mxCell>
        <mxCell id="_PYBqEXPpF2akzC7-0be-129" value="写入bvh完成&lt;br&gt;输出bvh动作资产" style="shape=process;whiteSpace=wrap;html=1;backgroundOutline=1;" vertex="1" parent="_PYBqEXPpF2akzC7-0be-130">
          <mxGeometry x="20" y="430" width="160" height="60" as="geometry" />
        </mxCell>
        <mxCell id="_PYBqEXPpF2akzC7-0be-131" value="所有帧&lt;br&gt;完毕？" style="rhombus;whiteSpace=wrap;html=1;" vertex="1" parent="_PYBqEXPpF2akzC7-0be-130">
          <mxGeometry x="60" y="310" width="80" height="80" as="geometry" />
        </mxCell>
        <mxCell id="_PYBqEXPpF2akzC7-0be-132" value="" style="endArrow=classic;html=1;rounded=0;exitX=0.5;exitY=1;exitDx=0;exitDy=0;entryX=0.5;entryY=0;entryDx=0;entryDy=0;" edge="1" parent="_PYBqEXPpF2akzC7-0be-130" source="_PYBqEXPpF2akzC7-0be-131" target="_PYBqEXPpF2akzC7-0be-129">
          <mxGeometry width="50" height="50" relative="1" as="geometry">
            <mxPoint x="320" y="370" as="sourcePoint" />
            <mxPoint x="370" y="320" as="targetPoint" />
          </mxGeometry>
        </mxCell>
        <mxCell id="_PYBqEXPpF2akzC7-0be-133" value="" style="endArrow=classic;html=1;rounded=0;exitX=1;exitY=0.5;exitDx=0;exitDy=0;entryX=1;entryY=0.5;entryDx=0;entryDy=0;" edge="1" parent="_PYBqEXPpF2akzC7-0be-130" source="_PYBqEXPpF2akzC7-0be-131" target="_PYBqEXPpF2akzC7-0be-127">
          <mxGeometry width="50" height="50" relative="1" as="geometry">
            <mxPoint x="260" y="340" as="sourcePoint" />
            <mxPoint x="310" y="290" as="targetPoint" />
            <Array as="points">
              <mxPoint x="190" y="350" />
              <mxPoint x="190" y="140" />
            </Array>
          </mxGeometry>
        </mxCell>
        <mxCell id="_PYBqEXPpF2akzC7-0be-134" value="" style="endArrow=classic;html=1;rounded=0;exitX=0.5;exitY=1;exitDx=0;exitDy=0;entryX=0.5;entryY=0;entryDx=0;entryDy=0;" edge="1" parent="_PYBqEXPpF2akzC7-0be-130" source="_PYBqEXPpF2akzC7-0be-128" target="_PYBqEXPpF2akzC7-0be-131">
          <mxGeometry width="50" height="50" relative="1" as="geometry">
            <mxPoint x="270" y="320" as="sourcePoint" />
            <mxPoint x="320" y="270" as="targetPoint" />
          </mxGeometry>
        </mxCell>
        <mxCell id="_PYBqEXPpF2akzC7-0be-135" value="" style="endArrow=classic;html=1;rounded=0;exitX=0.5;exitY=1;exitDx=0;exitDy=0;entryX=0.5;entryY=0;entryDx=0;entryDy=0;" edge="1" parent="_PYBqEXPpF2akzC7-0be-130" source="_PYBqEXPpF2akzC7-0be-127" target="_PYBqEXPpF2akzC7-0be-128">
          <mxGeometry width="50" height="50" relative="1" as="geometry">
            <mxPoint x="290" y="180" as="sourcePoint" />
            <mxPoint x="340" y="130" as="targetPoint" />
          </mxGeometry>
        </mxCell>
        <mxCell id="_PYBqEXPpF2akzC7-0be-136" value="" style="endArrow=classic;html=1;rounded=0;exitX=0.5;exitY=1;exitDx=0;exitDy=0;entryX=0.5;entryY=0;entryDx=0;entryDy=0;" edge="1" parent="_PYBqEXPpF2akzC7-0be-130" source="_PYBqEXPpF2akzC7-0be-126" target="_PYBqEXPpF2akzC7-0be-127">
          <mxGeometry width="50" height="50" relative="1" as="geometry">
            <mxPoint x="280" y="140" as="sourcePoint" />
            <mxPoint x="330" y="90" as="targetPoint" />
          </mxGeometry>
        </mxCell>
        <mxCell id="_PYBqEXPpF2akzC7-0be-137" value="Y" style="text;html=1;strokeColor=none;fillColor=none;align=center;verticalAlign=middle;whiteSpace=wrap;rounded=0;" vertex="1" parent="_PYBqEXPpF2akzC7-0be-130">
          <mxGeometry x="60" y="390" width="60" height="30" as="geometry" />
        </mxCell>
        <mxCell id="_PYBqEXPpF2akzC7-0be-138" value="N" style="text;html=1;strokeColor=none;fillColor=none;align=center;verticalAlign=middle;whiteSpace=wrap;rounded=0;" vertex="1" parent="_PYBqEXPpF2akzC7-0be-130">
          <mxGeometry x="130" y="320" width="60" height="30" as="geometry" />
        </mxCell>
        <mxCell id="_PYBqEXPpF2akzC7-0be-139" value="" style="endArrow=classic;html=1;rounded=0;exitX=0.5;exitY=0;exitDx=0;exitDy=0;entryX=0;entryY=0.5;entryDx=0;entryDy=0;" edge="1" parent="1" source="_PYBqEXPpF2akzC7-0be-120" target="_PYBqEXPpF2akzC7-0be-126">
          <mxGeometry width="50" height="50" relative="1" as="geometry">
            <mxPoint x="360" y="2300" as="sourcePoint" />
            <mxPoint x="410" y="2250" as="targetPoint" />
            <Array as="points">
              <mxPoint x="380" y="1960" />
            </Array>
          </mxGeometry>
        </mxCell>
        <mxCell id="_PYBqEXPpF2akzC7-0be-140" value="" style="endArrow=classic;html=1;rounded=0;exitX=1;exitY=0.5;exitDx=0;exitDy=0;entryX=0;entryY=0.5;entryDx=0;entryDy=0;" edge="1" parent="1" source="_PYBqEXPpF2akzC7-0be-129" target="_PYBqEXPpF2akzC7-0be-121">
          <mxGeometry width="50" height="50" relative="1" as="geometry">
            <mxPoint x="760" y="2250" as="sourcePoint" />
            <mxPoint x="810" y="2200" as="targetPoint" />
          </mxGeometry>
        </mxCell>
      </root>
    </mxGraphModel>
  </diagram>
</mxfile>
